<svg width="1173.19" height="1173.19" viewBox="0 0 1173.19 1173.19" xmlns="http://www.w3.org/2000/svg" xmlns:xlink="http://www.w3.org/1999/xlink" overflow="hidden"><defs></defs><circle cx="586.6" cy="586.6" r="586.6" fill="#F7F7F7"/><g><path d="M288.81 673.19 288.81 907.14 878.25 907.14 878.25 620.78 687.59 620.78 687.59 763.96 594.16 763.96 594.16 673.95Z" stroke="#F16461" stroke-width="20" stroke-linecap="round" stroke-linejoin="round" stroke-miterlimit="10" fill="none"/><path d="M555.86 469.87C496.98 440.02 436.4 358.34 436.4 358.34L436.37 359.05 436.33 358.34C436.33 358.34 375.75 440.02 316.87 469.87 316.87 469.87 194 546.84 284.44 670.15L421.04 670.15 451.69 670.15 588.29 670.15C678.73 546.84 555.86 469.87 555.86 469.87Z" stroke="#F16461" stroke-width="20" stroke-linecap="round" stroke-linejoin="round" stroke-miterlimit="10" fill="none"/><path d="M849.9 506.74C815 489.82 779.08 443.5 779.08 443.5L779.06 443.9 779.04 443.5C779.04 443.5 743.12 489.82 708.22 506.74 708.22 506.74 635.38 550.38 689 620.3L769.98 620.3 788.15 620.3 869.13 620.3C922.74 550.39 849.9 506.74 849.9 506.74Z" stroke="#F16461" stroke-width="20" stroke-linecap="round" stroke-linejoin="round" stroke-miterlimit="10" fill="none"/><path d="M529.96 453.75 621.51 266.05 718.36 492.79" stroke="#F16461" stroke-width="20" stroke-linecap="round" stroke-linejoin="round" stroke-miterlimit="10" fill="none"/><line x1="263.82" y1="592.67" x2="453.64" y2="592.67" stroke="#F16461" stroke-width="20" stroke-linecap="round" stroke-linejoin="round" stroke-miterlimit="10" fill="none"/><line x1="471.11" y1="506.46" x2="583.53" y2="506.46" stroke="#F16461" stroke-width="20" stroke-linecap="round" stroke-linejoin="round" stroke-miterlimit="10" fill="none"/><path d="M343.5 849.11 343.5 771.36C343.5 761.54 351.46 753.58 361.28 753.58L396.37 753.58C406.19 753.58 414.15 761.54 414.15 771.36L414.15 849.11" stroke="#F16461" stroke-width="20" stroke-linecap="round" stroke-linejoin="round" stroke-miterlimit="10" fill="none"/><path d="M462.76 849.11 462.76 771.36C462.76 761.54 470.72 753.58 480.54 753.58L515.63 753.58C525.45 753.58 533.41 761.54 533.41 771.36L533.41 849.11" stroke="#F16461" stroke-width="20" stroke-linecap="round" stroke-linejoin="round" stroke-miterlimit="10" fill="none"/><path d="M745.32 801.34 745.32 713.52C745.32 698.88 757.19 687.01 771.83 687.01L786.41 687.01C801.05 687.01 812.92 698.88 812.92 713.52L812.92 801.34" stroke="#F16461" stroke-width="20" stroke-linecap="round" stroke-linejoin="round" stroke-miterlimit="10" fill="none"/><circle cx="779.06" cy="404.42" r="28.61" stroke="#F16461" stroke-width="20" stroke-linecap="round" stroke-linejoin="round" stroke-miterlimit="10" fill="none"/><circle cx="436.36" cy="326.66" r="28.61" stroke="#F16461" stroke-width="20" stroke-linecap="round" stroke-linejoin="round" stroke-miterlimit="10" fill="none"/></g></svg>