<svg width="1173.19" height="1173.19" viewBox="0 0 1173.19 1173.19" xmlns="http://www.w3.org/2000/svg" xmlns:xlink="http://www.w3.org/1999/xlink" overflow="hidden"><defs></defs><circle cx="586.6" cy="586.6" r="586.6" fill="#F7F7F7"/><path d="M667.95 463.19 711.14 476.92 775.83 497.49 870.57 464.59 870.57 458.81 776.01 425.98Z" fill="none"/><path d="M636.32 671 761.53 714.95 761.53 523.37 636.32 483.57Z" fill="none"/><path d="M790.53 717.18 790.53 523.08 870.56 495.29 870.56 464.59 775.82 497.48 711.13 476.92 667.94 463.19 776 425.98 870.55 458.81 870.55 428.11 780.77 396.94C777.7 395.87 774.37 395.87 771.29 396.93L617.1 450.03C616.88 450.11 616.66 450.2 616.45 450.28 616.35 450.32 616.26 450.35 616.16 450.39 615.69 450.59 615.24 450.81 614.81 451.05 614.72 451.1 614.64 451.15 614.55 451.2 614.16 451.43 613.78 451.67 613.42 451.93 613.37 451.96 613.32 451.99 613.27 452.03 613.25 452.05 613.23 452.07 613.21 452.08 612.8 452.38 612.41 452.71 612.04 453.05 611.96 453.12 611.88 453.2 611.8 453.28 611.48 453.58 611.18 453.9 610.89 454.23 610.83 454.29 610.77 454.36 610.72 454.42 610.4 454.8 610.11 455.19 609.83 455.6 609.76 455.7 609.7 455.8 609.63 455.9 609.39 456.27 609.17 456.64 608.97 457.03 608.94 457.1 608.9 457.16 608.86 457.22 608.64 457.66 608.44 458.12 608.26 458.58 608.22 458.69 608.18 458.79 608.14 458.9 607.99 459.32 607.86 459.75 607.75 460.19 607.73 460.25 607.71 460.32 607.7 460.38 607.58 460.87 607.5 461.36 607.43 461.86 607.41 461.98 607.4 462.1 607.39 462.21 607.34 462.65 607.32 463.09 607.31 463.53 607.31 463.59 607.3 463.65 607.3 463.72L607.3 681.25C607.3 687.41 611.19 692.89 617 694.93L771.21 749.06C772.77 749.61 774.4 749.88 776.01 749.88 778.98 749.88 781.91 748.97 784.4 747.21 785.74 746.26 786.88 745.09 787.81 743.79L870.55 712.91 870.55 687.29 790.53 717.18ZM761.53 714.95 636.32 671 636.32 483.57 761.53 523.37 761.53 714.95Z" fill="#F9C1C0"/><path d="M790.53 717.18 870.57 687.31 870.57 495.29 790.53 523.08Z" fill="none"/><path d="M909.13 672.92 910.91 481.28 870.57 495.29 870.57 687.31Z" fill="none"/><path d="M878.89 461.7 870.57 458.81 870.57 464.59Z" fill="none"/><path d="M927.85 448 870.56 428.11 870.56 458.81 878.88 461.7 870.56 464.59 870.56 495.29 910.91 481.28 909.13 672.92 870.57 687.31 870.57 712.93 925.25 692.52C929.9 690.78 933.01 686.36 933.05 681.39L935.02 469.94C936.66 467.57 937.6 464.72 937.6 461.7 937.6 455.53 933.69 450.03 927.85 448Z" fill="#F16461"/><path d="M814.52 238.35 364.45 238.35C333.78 238.35 308.91 263.22 308.91 293.89L308.91 879.3C308.91 909.97 333.78 934.84 364.45 934.84L814.53 934.84C845.21 934.84 870.07 909.97 870.07 879.3L870.07 293.89C870.06 263.21 845.2 238.35 814.52 238.35ZM808.95 784.55C808.95 803.22 793.81 818.36 775.14 818.36L403.83 818.36C385.16 818.36 370.02 803.22 370.02 784.55L370.02 333.43C370.02 314.76 385.16 299.62 403.83 299.62L775.14 299.62C793.81 299.62 808.95 314.76 808.95 333.43L808.95 784.55Z" stroke="#F16461" stroke-width="20" stroke-miterlimit="10" fill="#F7F7F7"/><circle cx="593.97" cy="875.04" r="25.79" stroke="#F16461" stroke-width="15.8558" stroke-miterlimit="10" fill="none"/></svg>