<svg width="1173.19" height="1173.19" viewBox="0 0 1173.19 1173.19" xmlns="http://www.w3.org/2000/svg" xmlns:xlink="http://www.w3.org/1999/xlink" overflow="hidden"><defs></defs><circle cx="586.6" cy="586.6" r="586.6" fill="#F7F7F7"/><path d="M904.66 504.19 740.64 504.19 740.64 453.61 600.58 565.44 740.64 677.27 740.64 626.7 904.66 626.7Z" stroke="#F16461" stroke-width="22.6915" stroke-linecap="round" stroke-linejoin="round" stroke-miterlimit="10" fill="#EEEDF4"/><path d="M795.34 238.35 345.26 238.35C314.59 238.35 289.72 263.22 289.72 293.89L289.72 879.3C289.72 909.97 314.59 934.84 345.26 934.84L795.34 934.84C826.02 934.84 850.88 909.97 850.88 879.3L850.88 293.89C850.88 263.21 826.02 238.35 795.34 238.35ZM789.77 784.55C789.77 803.22 774.63 818.36 755.96 818.36L384.65 818.36C365.98 818.36 350.84 803.22 350.84 784.55L350.84 333.43C350.84 314.76 365.98 299.62 384.65 299.62L755.96 299.62C774.63 299.62 789.77 314.76 789.77 333.43L789.77 784.55Z" stroke="#F16461" stroke-width="20" stroke-miterlimit="10" fill="#F7F7F7"/><circle cx="574.79" cy="875.04" r="25.79" stroke="#F16461" stroke-width="16" stroke-miterlimit="10" fill="none"/></svg>