<svg width="1173.19" height="1173.19" viewBox="0 0 1173.19 1173.19" xmlns="http://www.w3.org/2000/svg" xmlns:xlink="http://www.w3.org/1999/xlink" overflow="hidden"><defs></defs><circle cx="586.6" cy="586.6" r="586.6" fill="#F7F7F7"/><circle cx="612.35" cy="403.21" r="189.9" stroke="#F16461" stroke-width="19.2138" stroke-linecap="round" stroke-linejoin="round" stroke-miterlimit="10" fill="none"/><g><path d="M605.37 504.92 605.37 493.9C605.37 489.66 602.19 486.05 597.97 485.61 587.94 484.55 578.16 481.78 570.56 478.01 566.79 476.14 565.06 471.71 566.48 467.75L567.29 465.49C568.94 460.87 574.23 458.6 578.65 460.71 587.39 464.88 598.09 467.75 609.4 467.75 628.52 467.75 641.45 456.71 641.45 441.36 641.45 426.55 630.95 417.39 611.02 409.31 583.55 398.54 566.58 386.15 566.58 362.72 566.58 342.25 579.9 326.3 601.16 320.66 604.77 319.7 607.24 316.36 607.24 312.63L607.24 300.52C607.24 295.91 610.98 292.17 615.59 292.17L615.59 292.17C620.2 292.17 623.94 295.91 623.94 300.52L623.94 310.54C623.94 314.81 627.17 318.35 631.41 318.84 639.62 319.78 646.3 321.74 651.78 324.1 655.89 325.86 657.88 330.55 656.3 334.73L655.51 336.83C653.83 341.26 648.8 343.43 644.45 341.56 638.25 338.89 629.6 336.34 618.29 336.34 597.55 336.34 589.74 348.73 589.74 359.5 589.74 373.5 599.7 380.51 623.14 390.2 650.88 401.51 664.88 415.52 664.88 439.49 664.88 459.15 652.23 477.66 628.42 483.97 624.8 484.93 622.33 488.27 622.33 492.01L622.33 504.94C622.33 509.55 618.59 513.29 613.98 513.29L613.71 513.29C609.1 513.27 605.37 509.53 605.37 504.92Z" fill="#F16461"/></g><path d="M213.6 789.68 382.79 684.45C412.75 667.17 440.83 669.76 470.28 675.38L679.79 738.16C698.68 745.43 709.3 765.52 704.69 785.22L704.69 785.22C699.46 807.52 676.8 821.06 654.68 815.1L530.64 781.64" stroke="#F16461" stroke-width="20" stroke-linecap="round" stroke-miterlimit="10" fill="none"/><path d="M725.77 766.24 863.51 667.71C885.86 651.72 916.84 656.16 933.8 677.79L933.8 677.79C951.6 700.49 947.22 733.39 924.1 750.64L723.47 889.59C700.01 905.46 675.5 911.59 646.66 903.45L457.46 862.8C424.32 853.75 388.87 860.14 360.97 880.19L290.7 930.7" stroke="#F16461" stroke-width="20" stroke-linecap="round" stroke-miterlimit="10" fill="none"/><path d="M871.18 663.16 855.68 647.8C841.49 633.74 819.5 631.26 802.54 641.81L659.88 730.51" stroke="#F16461" stroke-width="20" stroke-linecap="round" stroke-miterlimit="10" fill="none"/><path d="M788.56 650.48 763.06 633.16C747.97 622.9 728.12 622.97 713.1 633.33L603.6 708.84" stroke="#F16461" stroke-width="20" stroke-linecap="round" stroke-miterlimit="10" fill="none"/></svg>