<?xml version="1.0" encoding="utf-8"?>
<!-- Generator: Adobe Illustrator 16.0.0, SVG Export Plug-In . SVG Version: 6.00 Build 0)  -->
<!DOCTYPE svg PUBLIC "-//W3C//DTD SVG 1.1//EN" "http://www.w3.org/Graphics/SVG/1.1/DTD/svg11.dtd">
<svg version="1.1" id="Capa_1" xmlns="http://www.w3.org/2000/svg" xmlns:xlink="http://www.w3.org/1999/xlink" x="0px" y="0px"
	 width="27.055px" height="26.352px" viewBox="0 0 27.055 26.352" enable-background="new 0 0 27.055 26.352" xml:space="preserve">
<title>up</title>
<path fill="#FF9E01" d="M0.176,13.238c0,2.892,0.731,5.989,2.552,7.391c1.007,0.774,1.451,1.983,2.736,2.724
	c0.904,0.521,1.434,1.313,2.391,1.758c1.724,0.797,3.643,1.242,5.665,1.242c1.995,0,3.626-0.838,5.349-1.299
	c2.034-0.545,1.333-2.234,3.561-2.96c1.969-0.643,3.183-3.577,3.786-5.616c0.361-1.219,0.994-2.878,0.806-3.625
	c-0.188-0.747-1.229-1.91-0.935-3.563c0.166-0.928-1.391-3.613-1.94-4.344c-1.296-1.717-3.494-2.627-4.696-3.751
	S15.916-0.2,13.834,0.132C11.766,0.461,9.695,0,7.927,0.851C5.773,1.887,3.806,3.49,3.021,5.57C2.638,6.583,1.627,7.377,0.858,8.164
	C-0.52,9.571,0.176,11.588,0.176,13.238z"/>
</svg>
