<?xml version="1.0" encoding="utf-8"?>
<!-- Generator: Adobe Illustrator 16.0.0, SVG Export Plug-In . SVG Version: 6.00 Build 0)  -->
<!DOCTYPE svg PUBLIC "-//W3C//DTD SVG 1.1//EN" "http://www.w3.org/Graphics/SVG/1.1/DTD/svg11.dtd">
<svg version="1.1" id="Layer_1" xmlns="http://www.w3.org/2000/svg" xmlns:xlink="http://www.w3.org/1999/xlink" x="0px" y="0px"
	 width="711.205px" height="600.281px" viewBox="0 0 711.205 600.281" enable-background="new 0 0 711.205 600.281"
	 xml:space="preserve">
<path fill-rule="evenodd" clip-rule="evenodd" fill="#FBAE25" d="M400.58,0.052c40.789-0.215,76.186,5.439,110.693,15.83
	c21.439,6.455,70.643,34.736,88.708,48.007c12.479,9.167,56.097,60.652,83.649,110.509c11.706,21.184,21.042,43.341,25.49,67.34
	c4.405,23.773,1.934,46.59-8.451,68.549c-8.636,18.258-18.013,35.989-31.156,51.549c-14.152,16.752-32.06,28.367-51.041,38.686
	c-31.725,17.242-64.024,33.541-94.922,52.162c-35.491,21.389-69.682,44.93-104.506,67.432
	c-32.454,20.969-65.287,41.244-101.319,55.762c-28.713,11.572-58.444,18.891-89.232,21.617c-16.71,1.48-33.511,2.926-50.257,2.775
	c-33.602-0.303-66.631-4.684-97.742-18.551c-36.97-16.48-62.275-43.453-74.894-82.277c-4.825-14.844-6.235-29.838-5.354-45.213
	c3-52.326,19.7-101.146,38.481-149.398c14.375-36.932,30.908-72.895,49.533-107.879c1.773-3.331,4.173-6.433,6.738-9.221
	c42.293-45.973,87.61-88.63,138.664-124.848c32.024-22.719,65.588-42.769,103.564-54.032C359.334,2.295,382.092-0.421,400.58,0.052z
	"/>
</svg>
