<?xml version="1.0" encoding="utf-8"?>
<!-- Generator: Adobe Illustrator 16.0.0, SVG Export Plug-In . SVG Version: 6.00 Build 0)  -->
<!DOCTYPE svg PUBLIC "-//W3C//DTD SVG 1.1//EN" "http://www.w3.org/Graphics/SVG/1.1/DTD/svg11.dtd">
<svg version="1.1" id="Layer_1" xmlns="http://www.w3.org/2000/svg" xmlns:xlink="http://www.w3.org/1999/xlink" x="0px" y="0px"
	 width="115px" height="91px" viewBox="0 0 115 91" enable-background="new 0 0 115 91" xml:space="preserve">
<g>
	<path fill="#F37321" d="M101.17,85.565c-3.87,2.938-7.942,5.792-15.205,5.398c-6.913-0.426-12.494-2.569-18.226-4.601
		c-6.334-2.281-10.962-4.205-15.756-7.421c-4.741-3.019-7.189-6.835-11.78-9.967c-4.993-3.299-10.366-4.656-13.967-8.776
		c-3.453-4.232-6.952-7.959-11.7-11.681c-5.257-4.282-6.714-9.085-9.625-13.967c-2.804-4.488-5.602-8.273-4.761-13.168
		c0.952-4.502,2.853-8.782,8.57-12.177c7.162-4.019,17.833-7.629,27.732-8.762C44.803-0.458,53.72,0.1,61.745,1.335
		c8.077,1.433,13.283,1.499,18.339,5.696c17.289,14.529,29.247,31.214,34.204,48.487c0.682,2.557,1.168,5.73,0.047,8.237
		c-0.975,2.394-3.602,4.624-4.977,6.85c-1.324,2.424-3.199,4.791-4.523,7.215c-1.322,2.422-0.932,5.908-3.813,7.858"/>
</g>
</svg>
