<?xml version="1.0" encoding="utf-8"?>
<!-- Generator: Adobe Illustrator 16.0.0, SVG Export Plug-In . SVG Version: 6.00 Build 0)  -->
<!DOCTYPE svg PUBLIC "-//W3C//DTD SVG 1.1//EN" "http://www.w3.org/Graphics/SVG/1.1/DTD/svg11.dtd">
<svg version="1.1" id="Layer_1" xmlns="http://www.w3.org/2000/svg" xmlns:xlink="http://www.w3.org/1999/xlink" x="0px" y="0px"
	 width="100.932px" height="218.313px" viewBox="0 0 100.932 218.313" enable-background="new 0 0 100.932 218.313"
	 xml:space="preserve">
<g>
	<path fill="#FBAE25" d="M76.902,218.313l-0.177-0.305c-1.09-1.873-2.324-3.997-3.046-6.211c-1.068-3.003-3.245-10.905-5.35-18.546
		c-1.879-6.818-3.652-13.259-4.523-15.81c-2.326-6.424-4.58-13.014-6.759-19.387c-1.733-5.067-3.524-10.307-5.36-15.484
		c-1.093-3.085-3.63-9.308-6.083-15.325c-2.654-6.511-5.162-12.66-6.119-15.464c-1.509-4.22-3.436-8.367-5.3-12.377
		c-2.797-6.019-5.689-12.243-7.364-19.069C25.421,74.82,6.789,25.789,0.14,15.152l1.271-0.795
		C8.36,25.471,26.843,74.324,28.276,79.971c1.641,6.69,4.502,12.847,7.269,18.8c1.878,4.041,3.82,8.22,5.355,12.515
		c0.947,2.773,3.562,9.188,6.091,15.393c2.46,6.033,5.003,12.272,6.109,15.39c1.838,5.187,3.631,10.43,5.365,15.501
		c2.177,6.367,4.429,12.95,6.755,19.374c0.89,2.607,2.67,9.068,4.554,15.909c2.099,7.615,4.268,15.49,5.324,18.461
		c0.679,2.081,1.871,4.132,2.923,5.94l0.177,0.305L76.902,218.313z"/>
</g>
<g>
	<path fill="#FBAE25" d="M87.989,210.11l-0.167-0.287c-1.093-1.878-2.331-4.008-3.056-6.229c-1.068-3.003-3.244-10.902-5.349-18.543
		c-1.879-6.819-3.653-13.261-4.524-15.813c-2.322-6.412-4.571-12.99-6.747-19.352c-1.737-5.078-3.533-10.33-5.373-15.52
		c-1.094-3.089-3.635-9.32-6.092-15.347c-2.65-6.501-5.153-12.642-6.109-15.442c-1.509-4.221-3.437-8.367-5.3-12.378
		c-2.797-6.019-5.69-12.242-7.364-19.069C36.507,66.616,17.873,17.581,11.227,6.95l1.271-0.795
		c6.944,11.108,25.43,59.965,26.865,65.614c1.641,6.69,4.501,12.847,7.269,18.8c1.878,4.041,3.82,8.219,5.356,12.515
		c0.945,2.77,3.557,9.175,6.083,15.371c2.463,6.042,5.01,12.29,6.116,15.412c1.843,5.197,3.64,10.453,5.378,15.535
		c2.174,6.355,4.421,12.927,6.743,19.339c0.89,2.607,2.67,9.07,4.556,15.912c2.097,7.614,4.266,15.487,5.322,18.458
		c0.681,2.088,1.877,4.144,2.933,5.958l0.167,0.287L87.989,210.11z"/>
</g>
<g>
	<path fill="#FBAE25" d="M99.602,207.15l-0.161-0.31c-1.005-1.921-2.144-4.099-2.765-6.344c-0.932-3.049-2.75-11.042-4.509-18.772
		c-1.569-6.895-3.051-13.406-3.805-15.993c-2.034-6.521-3.988-13.203-5.878-19.665c-1.503-5.143-3.058-10.46-4.659-15.718
		c-0.953-3.13-3.206-9.458-5.384-15.577c-2.359-6.626-4.588-12.885-5.417-15.729c-1.317-4.284-3.056-8.514-4.737-12.604
		c-2.523-6.139-5.132-12.487-6.496-19.383c-1.151-5.574-17.558-55.4-23.717-66.318L33.381,0c6.436,11.409,22.701,61.05,23.88,66.758
		c1.337,6.758,3.918,13.037,6.414,19.11c1.694,4.121,3.445,8.383,4.786,12.744c0.82,2.813,3.146,9.342,5.394,15.657
		c2.184,6.136,4.442,12.479,5.406,15.643c1.604,5.266,3.159,10.588,4.664,15.734c1.887,6.456,3.839,13.132,5.873,19.652
		c0.771,2.644,2.258,9.177,3.831,16.094c1.753,7.704,3.565,15.671,4.486,18.687c0.585,2.11,1.685,4.213,2.654,6.068l0.162,0.311
		L99.602,207.15z"/>
</g>
</svg>
