<?xml version="1.0" encoding="utf-8"?>
<!-- Generator: Adobe Illustrator 16.0.0, SVG Export Plug-In . SVG Version: 6.00 Build 0)  -->
<!DOCTYPE svg PUBLIC "-//W3C//DTD SVG 1.1//EN" "http://www.w3.org/Graphics/SVG/1.1/DTD/svg11.dtd">
<svg version="1.1" id="Layer_1" xmlns="http://www.w3.org/2000/svg" xmlns:xlink="http://www.w3.org/1999/xlink" x="0px" y="0px"
	 width="308.053px" height="265.413px" viewBox="0 0 308.053 265.413" enable-background="new 0 0 308.053 265.413"
	 xml:space="preserve">
<path fill="#F6917F" d="M229.153,52.927c33.286,44.991,28.716,104.806-10.207,133.603c-38.922,28.796-97.458,15.669-130.744-29.322
	c-16.285-22.012-23.509-47.572-22.081-71.313c1.49-24.782,12.409-47.582,32.287-62.289C137.331-5.19,195.867,7.937,229.153,52.927z"
	/>
<ellipse transform="matrix(0.9335 -0.3587 0.3587 0.9335 -54.8974 102.4841)" fill="#A43022" cx="248.75" cy="199.193" rx="58.006" ry="67.328"/>
<g opacity="0.7">
	<path fill="#4EA1C8" d="M44.831,84.257c-2.815,17.632-0.499,32.769,11.71,46.749c5.659,6.388,11.964,13.229,19.387,17.377
		c5.133,2.733,15.599,8.052,21.121,4.588c3.163-2.029,4.639-5.92,7.355-8.552c3.269-2.729,5.873-3.412,6.902-7.905
		c2.059-8.986,2.92-18.331,2.977-27.081c0.259-8.898,1.461-16.941-4.189-24.578c-4.461-6.029-6.815-12.995-14.142-16.593
		c-5.482-2.786-11.663-5.676-17.398-7.964c-6.233-2.541-10.236-2.067-15.952,0.296c-4.763,1.969-10.627,4.13-13.807,8.66
		C46.776,71.991,45.241,80.24,44.831,84.257L44.831,84.257z"/>
</g>
<g>
	<path fill="#F37321" d="M146.691,6.907c-2.612,1.933-5.15,3.966-4.8,7.594c0.378,3.453,2.284,6.24,4.091,9.102
		c2.029,3.163,3.739,5.474,6.599,7.868c2.685,2.368,6.077,3.59,8.862,5.883c2.934,2.494,4.141,5.177,7.805,6.976
		c3.764,1.725,7.077,3.472,10.387,5.843c3.808,2.625,8.078,3.353,12.419,4.806c3.991,1.401,7.356,2.798,11.71,2.376
		c4.003-0.474,7.809-1.424,10.828-4.279c3.573-3.577,6.783-8.906,7.79-13.85c0.803-4.169,0.307-8.623-0.792-12.63
		c-1.273-4.033-1.332-6.634-5.065-9.158C203.605,8.804,188.77,2.832,173.41,0.356c-2.273-0.34-5.097-0.583-7.325-0.023
		c-2.128,0.486-4.111,1.798-6.091,2.485c-2.155,0.661-4.261,1.597-6.415,2.258c-2.154,0.661-5.254,0.466-6.988,1.904"/>
</g>
<g>
	<path fill="#0275A2" d="M171.481,207.498c-0.273,3.624,0.187,5.927,2.343,8.841c1.562,2.11,3.914,5.501,6.306,6.841
		c2.067,1.114,8.134,2.379,10.314,1.543c2.482-1.059,4.325-3.822,5.863-5.737c2.145-2.985,3.778-4.35,4.078-8.148
		c0.222-3.273-0.956-6.756-3.291-9.071c-2.187-2.114-7.096-4.547-9.901-3.715c-2.805,0.832-6.493,2.782-9.027,4.191
		c-2.635,1.482-5.273,3.59-6.592,6.432"/>
</g>
<circle fill="#F8DCA2" cx="270.635" cy="183.822" r="32"/>
<path fill="none" stroke="#FFFFFF" stroke-width="1.5" stroke-miterlimit="10" d="M178.868,37.368
	c6.779,10.844,25.312,59.642,26.773,65.401c2.776,11.318,8.864,20.809,12.646,31.383c1.864,5.463,9.958,24.458,12.199,30.78
	c4.154,11.721,7.947,23.353,12.122,34.88c1.864,5.463,7.862,28.702,9.876,34.365c0.735,2.255,2.021,4.413,3.158,6.371"/>
<path fill="none" stroke="#FFFFFF" stroke-width="1.5" stroke-miterlimit="10" d="M189.955,29.166
	c6.779,10.845,25.311,59.642,26.773,65.401c2.775,11.318,8.864,20.808,12.646,31.383c1.864,5.462,9.958,24.457,12.198,30.78
	c4.155,11.72,7.948,23.353,12.123,34.88c1.864,5.462,7.862,28.702,9.876,34.365c0.735,2.255,2.021,4.413,3.158,6.371"/>
<path fill="none" stroke="#FFFFFF" stroke-width="1.5" stroke-miterlimit="10" d="M210.82,22.982
	c6.283,11.139,22.597,60.722,23.799,66.542c2.262,11.432,7.917,21.187,11.218,31.922c1.615,5.54,8.845,24.881,10.799,31.298
	c3.622,11.896,6.888,23.687,10.539,35.392c1.615,5.54,6.561,29.027,8.316,34.775c0.633,2.285,1.82,4.499,2.868,6.507"/>
<path fill="none" stroke="#000000" stroke-width="3" stroke-miterlimit="10" d="M0,96.003c5.187,1.967,8.708,3.923,14.441,3.828
	c5.734-0.096,8.799,0.124,14.185,2.359c9.046,3.259,19.839,4.396,29.49,6.793c9.65,2.396,19.512,3.394,29.232,5.324
	c7.684,1.841,44.017,6.711,70.636,11.407c10.047,1.772,17.591,4.753,23.321,5.74c10.921,1.872,51.214,8.135,61.005,9.599
	c10.059,1.266,19.978,3.464,30.165,5.464"/>
</svg>
