<?xml version="1.0" encoding="utf-8"?>
<!-- Generator: Adobe Illustrator 16.0.0, SVG Export Plug-In . SVG Version: 6.00 Build 0)  -->
<!DOCTYPE svg PUBLIC "-//W3C//DTD SVG 1.1//EN" "http://www.w3.org/Graphics/SVG/1.1/DTD/svg11.dtd">
<svg version="1.1" id="Layer_1" xmlns="http://www.w3.org/2000/svg" xmlns:xlink="http://www.w3.org/1999/xlink" x="0px" y="0px"
	 width="70.812px" height="95.509px" viewBox="0 0 70.812 95.509" enable-background="new 0 0 70.812 95.509" xml:space="preserve">
<g opacity="0.7">
	<path fill="#54A1BF" d="M1.075,25.661C-1.74,43.292,0.576,58.43,12.785,72.41c5.659,6.388,11.964,13.229,19.387,17.377
		c5.133,2.733,15.599,8.052,21.121,4.588c3.163-2.029,4.639-5.92,7.355-8.552c3.269-2.729,5.873-3.412,6.902-7.905
		c2.059-8.986,2.92-18.331,2.977-27.081c0.259-8.898,1.461-16.941-4.189-24.578c-4.461-6.029-6.815-12.995-14.142-16.593
		C46.714,6.88,40.533,3.99,34.798,1.702c-6.233-2.541-10.236-2.067-15.952,0.296c-4.763,1.969-10.627,4.13-13.807,8.66
		C3.021,13.395,1.485,21.644,1.075,25.661L1.075,25.661z"/>
</g>
</svg>
