<?xml version="1.0" encoding="utf-8"?>
<!-- Generator: Adobe Illustrator 16.0.0, SVG Export Plug-In . SVG Version: 6.00 Build 0)  -->
<!DOCTYPE svg PUBLIC "-//W3C//DTD SVG 1.1//EN" "http://www.w3.org/Graphics/SVG/1.1/DTD/svg11.dtd">
<svg version="1.1" id="Layer_1" xmlns="http://www.w3.org/2000/svg" xmlns:xlink="http://www.w3.org/1999/xlink" x="0px" y="0px"
	 width="450.897px" height="450.906px" viewBox="0 0 450.897 450.906" enable-background="new 0 0 450.897 450.906"
	 xml:space="preserve">
<g>
	<path fill="#62C4B3" d="M220.583,450.906c-1.666-0.033-3.327-0.088-4.983-0.158l0.621-14.473c1.551,0.066,3.107,0.117,4.667,0.15
		L220.583,450.906z M235.537,450.734l-0.644-14.469c1.561-0.07,3.114-0.156,4.666-0.258l0.952,14.453
		C238.859,450.57,237.2,450.662,235.537,450.734z M200.692,449.617c-1.657-0.18-3.307-0.379-4.954-0.596l1.888-14.363
		c1.54,0.205,3.083,0.391,4.633,0.559L200.692,449.617z M255.394,448.982l-1.907-14.359c1.545-0.205,3.085-0.428,4.618-0.666
		l2.228,14.313C258.692,448.525,257.046,448.763,255.394,448.982z M180.981,446.578c-1.633-0.326-3.26-0.67-4.88-1.031l3.153-14.139
		c1.517,0.34,3.039,0.662,4.566,0.967L180.981,446.578z M275.036,445.48l-3.188-14.131c1.522-0.342,3.039-0.699,4.549-1.074
		l3.485,14.059C278.273,444.732,276.657,445.115,275.036,445.48z M161.613,441.802c-1.597-0.471-3.187-0.959-4.769-1.463l4.4-13.801
		c1.481,0.473,2.969,0.928,4.463,1.369L161.613,441.802z M294.277,440.248l-4.417-13.795c1.481-0.475,2.957-0.967,4.426-1.473
		l4.726,13.691C297.441,439.214,295.863,439.74,294.277,440.248z M142.726,435.31c-1.552-0.613-3.096-1.242-4.632-1.889
		l5.615-13.352c1.437,0.604,2.882,1.193,4.335,1.766L142.726,435.31z M312.961,433.332l-5.626-13.35
		c1.428-0.6,2.849-1.219,4.262-1.852l5.925,13.217C316.012,432.025,314.49,432.685,312.961,433.332z M124.488,427.16
		c-1.491-0.748-2.972-1.51-4.444-2.291l6.779-12.801c1.377,0.73,2.762,1.443,4.157,2.143L124.488,427.16z M330.951,424.787
		l-6.795-12.791c1.373-0.73,2.737-1.475,4.093-2.23l7.067,12.643C333.87,423.216,332.416,424.009,330.951,424.787z M107.053,417.425
		c-1.417-0.877-2.823-1.766-4.219-2.672l7.885-12.15c1.307,0.848,2.623,1.682,3.95,2.502L107.053,417.425z M348.116,414.681
		l-7.896-12.145c1.305-0.848,2.598-1.709,3.882-2.582l8.157,11.969C350.889,412.857,349.509,413.777,348.116,414.681z
		 M90.555,406.193c-1.332-0.996-2.653-2.004-3.962-3.029l8.924-11.408c1.227,0.959,2.465,1.906,3.713,2.838L90.555,406.193z
		 M364.331,403.099l-8.931-11.404c1.223-0.959,2.437-1.93,3.638-2.914l9.182,11.203
		C366.936,401.037,365.639,402.076,364.331,403.099z M75.12,393.562c-1.239-1.109-2.467-2.232-3.681-3.367l9.895-10.578
		c1.136,1.063,2.285,2.111,3.444,3.15L75.12,393.562z M379.47,390.128l-9.901-10.572c1.136-1.063,2.259-2.139,3.371-3.227
		l10.132,10.352C381.884,387.843,380.683,388.994,379.47,390.128z M60.856,379.621c-1.136-1.211-2.258-2.436-3.368-3.674
		l10.787-9.666c1.039,1.158,2.09,2.305,3.153,3.439L60.856,379.621z M393.412,375.876l-10.79-9.662
		c1.04-1.16,2.065-2.332,3.079-3.514l10.997,9.426C395.617,373.388,394.521,374.638,393.412,375.876z M47.88,364.492
		c-1.025-1.307-2.035-2.625-3.031-3.955l11.593-8.684c0.932,1.244,1.877,2.479,2.836,3.699L47.88,364.492z M406.054,360.451
		l-11.595-8.68c0.934-1.248,1.852-2.504,2.757-3.771l11.786,8.42C408.035,357.773,407.052,359.119,406.054,360.451z M36.286,348.283
		c-0.905-1.391-1.794-2.793-2.669-4.205l12.314-7.627c0.818,1.32,1.65,2.631,2.497,3.932L36.286,348.283z M417.292,343.962
		l-12.313-7.627c0.819-1.322,1.624-2.654,2.413-3.998l12.485,7.344C419.031,341.119,418.17,342.544,417.292,343.962z M26.17,331.119
		c-0.778-1.463-1.539-2.936-2.285-4.418l12.938-6.512c0.698,1.387,1.411,2.766,2.139,4.135L26.17,331.119z M427.037,326.531
		l-12.945-6.496c0.7-1.395,1.385-2.795,2.054-4.205l13.085,6.213C428.516,323.548,427.784,325.044,427.037,326.531z M17.615,313.136
		c-0.644-1.523-1.271-3.057-1.882-4.598l13.464-5.342c0.572,1.443,1.159,2.877,1.762,4.305L17.615,313.136z M435.198,308.3
		l-13.47-5.326c0.573-1.449,1.129-2.906,1.671-4.369l13.587,5.018C436.407,305.191,435.811,306.75,435.198,308.3z M10.687,294.451
		c-0.508-1.58-0.999-3.172-1.472-4.766l13.887-4.119c0.443,1.492,0.902,2.979,1.376,4.459L10.687,294.451z M441.701,289.421
		l-13.895-4.096c0.44-1.492,0.864-2.988,1.271-4.492l13.98,3.789C442.623,286.23,442.17,287.83,441.701,289.421z M5.443,275.205
		c-0.364-1.619-0.711-3.244-1.042-4.875L18.6,267.46c0.308,1.527,0.634,3.049,0.975,4.564L5.443,275.205z M446.487,270.066
		l-14.2-2.857c0.306-1.521,0.595-3.049,0.867-4.582l14.262,2.533C447.124,266.802,446.815,268.437,446.487,270.066z M1.933,255.574
		c-0.22-1.645-0.421-3.295-0.605-4.949l14.396-1.602c0.172,1.551,0.361,3.096,0.566,4.637L1.933,255.574z M449.542,250.349
		l-14.4-1.572c0.169-1.545,0.322-3.094,0.458-4.648l14.43,1.262C449.885,247.048,449.721,248.701,449.542,250.349z M0.168,235.716
		c-0.074-1.658-0.129-3.318-0.168-4.984l14.481-0.332c0.036,1.559,0.089,3.115,0.158,4.668L0.168,235.716z M450.843,230.462
		l-14.48-0.314c0.033-1.553,0.051-3.109,0.051-4.67v-0.481h14.484v0.481C450.897,227.144,450.878,228.804,450.843,230.462z
		 M14.617,216.395l-14.472-0.614c0.071-1.664,0.159-3.323,0.266-4.978l14.455,0.927C14.767,213.281,14.683,214.836,14.617,216.395z
		 M435.926,211.016c-0.106-1.558-0.228-3.11-0.366-4.658l14.426-1.293c0.148,1.651,0.279,3.307,0.392,4.968L435.926,211.016z
		 M16.224,197.8l-14.362-1.881c0.216-1.651,0.451-3.297,0.703-4.938l14.316,2.198C16.645,194.714,16.426,196.255,16.224,197.8z
		 M433.847,192.467c-0.241-1.539-0.501-3.072-0.775-4.6l14.255-2.567c0.295,1.635,0.571,3.275,0.83,4.922L433.847,192.467z
		 M19.464,179.426l-14.139-3.148c0.362-1.626,0.742-3.244,1.138-4.856l14.065,3.459C20.158,176.39,19.803,177.905,19.464,179.426z
		 M430.136,174.185c-0.377-1.511-0.771-3.015-1.18-4.513l13.969-3.824c0.439,1.602,0.86,3.212,1.264,4.829L430.136,174.185z
		 M24.325,161.413l-13.803-4.393c0.507-1.592,1.031-3.177,1.573-4.755l13.701,4.701C25.29,158.442,24.799,159.924,24.325,161.413z
		 M424.815,156.308c-0.511-1.473-1.038-2.939-1.579-4.396l13.575-5.048c0.579,1.555,1.141,3.119,1.687,4.69L424.815,156.308z
		 M30.784,143.871l-13.355-5.607c0.646-1.539,1.308-3.069,1.988-4.591l13.226,5.904C32.009,141,31.389,142.432,30.784,143.871z
		 M417.93,138.986c-0.638-1.416-1.289-2.822-1.956-4.221l13.072-6.238c0.714,1.495,1.411,2.999,2.092,4.512L417.93,138.986z
		 M38.777,126.98l-12.804-6.772c0.78-1.474,1.575-2.939,2.387-4.393l12.648,7.058C40.25,124.232,39.507,125.602,38.777,126.98z
		 M409.537,122.351c-0.759-1.354-1.534-2.699-2.323-4.034l12.469-7.371c0.845,1.428,1.673,2.866,2.485,4.314L409.537,122.351z
		 M48.235,110.869l-12.156-7.877c0.907-1.398,1.829-2.786,2.765-4.163l11.974,8.149C49.943,108.265,49.083,109.562,48.235,110.869z
		 M399.704,106.516c-0.879-1.284-1.771-2.558-2.676-3.822l11.773-8.437c0.966,1.348,1.917,2.706,2.854,4.075L399.704,106.516z
		 M59.077,95.661l-11.414-8.919c1.024-1.31,2.063-2.609,3.116-3.896l11.215,9.166C61.008,93.218,60.036,94.434,59.077,95.661z
		 M388.507,91.599c-0.989-1.202-1.991-2.395-3.004-3.575l10.985-9.439c1.082,1.258,2.149,2.529,3.204,3.811L388.507,91.599z
		 M71.21,81.47l-10.584-9.889c1.135-1.215,2.282-2.417,3.444-3.606l10.364,10.119C73.348,79.207,72.273,80.333,71.21,81.47z
		 M376.032,77.716c-1.092-1.112-2.194-2.211-3.309-3.299l10.116-10.366c1.188,1.159,2.364,2.332,3.528,3.517L376.032,77.716z
		 M84.541,68.403l-9.676-10.78c1.236-1.109,2.485-2.205,3.746-3.288l9.436,10.99C86.867,66.338,85.698,67.364,84.541,68.403z
		 M362.384,64.977c-1.184-1.012-2.379-2.009-3.584-2.994l9.165-11.217c1.287,1.052,2.563,2.118,3.828,3.199L362.384,64.977z
		 M98.962,56.563l-8.689-11.588c1.327-0.996,2.666-1.977,4.017-2.944l8.434,11.776C101.458,54.712,100.205,55.631,98.962,56.563z
		 M347.665,53.486c-1.269-0.902-2.547-1.792-3.835-2.668l8.138-11.982c1.378,0.936,2.744,1.886,4.099,2.851L347.665,53.486z
		 M114.36,46.043l-7.633-12.31c1.409-0.873,2.827-1.732,4.256-2.576l7.365,12.473C117.009,44.421,115.68,45.225,114.36,46.043z
		 M331.988,43.335c-1.345-0.788-2.698-1.563-4.061-2.322l7.05-12.653c1.455,0.812,2.9,1.637,4.336,2.479L331.988,43.335z
		 M130.619,36.928l-6.517-12.937c1.479-0.744,2.967-1.473,4.463-2.187l6.235,13.074C133.398,35.547,132.004,36.23,130.619,36.928z
		 M315.469,34.61c-1.409-0.667-2.826-1.317-4.253-1.953l5.896-13.23c1.523,0.679,3.039,1.375,4.545,2.086L315.469,34.61z
		 M147.608,29.293l-5.344-13.462c1.544-0.613,3.096-1.209,4.657-1.79l5.043,13.579C150.504,28.162,149.052,28.72,147.608,29.293z
		 M298.231,27.383c-1.464-0.538-2.934-1.06-4.411-1.566l4.692-13.703c1.581,0.542,3.155,1.1,4.721,1.676L298.231,27.383z
		 M165.237,23.19l-4.123-13.886c1.592-0.473,3.19-0.928,4.796-1.367l3.817,13.973C168.224,22.321,166.727,22.748,165.237,23.19z
		 M280.438,21.728c-1.499-0.404-3.006-0.792-4.519-1.163l3.454-14.066c1.618,0.397,3.229,0.812,4.832,1.243L280.438,21.728z
		 M183.342,18.68l-2.875-14.197c1.627-0.329,3.261-0.642,4.902-0.935l2.555,14.257C186.39,18.08,184.863,18.371,183.342,18.68z
		 M262.223,17.683c-1.528-0.269-3.063-0.521-4.603-0.757l2.189-14.318c1.647,0.252,3.29,0.522,4.926,0.811L262.223,17.683z
		 M201.774,15.794l-1.603-14.396c1.647-0.184,3.301-0.349,4.959-0.498l1.292,14.427C204.868,15.466,203.318,15.622,201.774,15.794z
		 M243.723,15.268c-1.548-0.133-3.101-0.25-4.657-0.349l0.922-14.456c1.663,0.106,3.32,0.23,4.972,0.372L243.723,15.268z
		 M220.398,14.543l-0.336-14.481c1.656-0.039,3.317-0.06,4.982-0.063l0.025,14.485C223.509,14.488,221.952,14.507,220.398,14.543z"
		/>
</g>
</svg>
