<?xml version="1.0" encoding="utf-8"?>
<!-- Generator: Adobe Illustrator 16.0.0, SVG Export Plug-In . SVG Version: 6.00 Build 0)  -->
<!DOCTYPE svg PUBLIC "-//W3C//DTD SVG 1.1//EN" "http://www.w3.org/Graphics/SVG/1.1/DTD/svg11.dtd">
<svg version="1.1" id="Layer_1" xmlns="http://www.w3.org/2000/svg" xmlns:xlink="http://www.w3.org/1999/xlink" x="0px" y="0px"
	 width="32px" height="812px" viewBox="0 0 32 812" enable-background="new 0 0 32 812" xml:space="preserve">
<rect x="13" fill-rule="evenodd" clip-rule="evenodd" width="6" height="32"/>
<rect y="13" fill-rule="evenodd" clip-rule="evenodd" width="32" height="6"/>
<rect x="13" y="39" fill-rule="evenodd" clip-rule="evenodd" width="6" height="32"/>
<rect y="52" fill-rule="evenodd" clip-rule="evenodd" width="32" height="6"/>
<rect x="13" y="78" fill-rule="evenodd" clip-rule="evenodd" width="6" height="32"/>
<rect y="91" fill-rule="evenodd" clip-rule="evenodd" width="32" height="6"/>
<rect x="13" y="117" fill-rule="evenodd" clip-rule="evenodd" width="6" height="32"/>
<rect y="130" fill-rule="evenodd" clip-rule="evenodd" width="32" height="6"/>
<rect x="13" y="156" fill-rule="evenodd" clip-rule="evenodd" width="6" height="32"/>
<rect y="169" fill-rule="evenodd" clip-rule="evenodd" width="32" height="6"/>
<rect x="13" y="195" fill-rule="evenodd" clip-rule="evenodd" width="6" height="32"/>
<rect y="208" fill-rule="evenodd" clip-rule="evenodd" width="32" height="6"/>
<rect x="13" y="234" fill-rule="evenodd" clip-rule="evenodd" width="6" height="32"/>
<rect y="247" fill-rule="evenodd" clip-rule="evenodd" width="32" height="6"/>
<rect x="13" y="273" fill-rule="evenodd" clip-rule="evenodd" width="6" height="32"/>
<rect y="286" fill-rule="evenodd" clip-rule="evenodd" width="32" height="6"/>
<rect x="13" y="312" fill-rule="evenodd" clip-rule="evenodd" width="6" height="32"/>
<rect y="325" fill-rule="evenodd" clip-rule="evenodd" width="32" height="6"/>
<rect x="13" y="351" fill-rule="evenodd" clip-rule="evenodd" width="6" height="32"/>
<rect y="364" fill-rule="evenodd" clip-rule="evenodd" width="32" height="6"/>
<rect x="13" y="390" fill-rule="evenodd" clip-rule="evenodd" width="6" height="32"/>
<rect y="403" fill-rule="evenodd" clip-rule="evenodd" width="32" height="6"/>
<rect x="13" y="429" fill-rule="evenodd" clip-rule="evenodd" width="6" height="32"/>
<rect y="442" fill-rule="evenodd" clip-rule="evenodd" width="32" height="6"/>
<rect x="13" y="468" fill-rule="evenodd" clip-rule="evenodd" width="6" height="32"/>
<rect y="481" fill-rule="evenodd" clip-rule="evenodd" width="32" height="6"/>
<rect x="13" y="507" fill-rule="evenodd" clip-rule="evenodd" width="6" height="32"/>
<rect y="520" fill-rule="evenodd" clip-rule="evenodd" width="32" height="6"/>
<rect x="13" y="546" fill-rule="evenodd" clip-rule="evenodd" width="6" height="32"/>
<rect y="559" fill-rule="evenodd" clip-rule="evenodd" width="32" height="6"/>
<rect x="13" y="585" fill-rule="evenodd" clip-rule="evenodd" width="6" height="32"/>
<rect y="598" fill-rule="evenodd" clip-rule="evenodd" width="32" height="6"/>
<rect x="13" y="624" fill-rule="evenodd" clip-rule="evenodd" width="6" height="32"/>
<rect y="637" fill-rule="evenodd" clip-rule="evenodd" width="32" height="6"/>
<rect x="13" y="663" fill-rule="evenodd" clip-rule="evenodd" width="6" height="32"/>
<rect y="676" fill-rule="evenodd" clip-rule="evenodd" width="32" height="6"/>
<rect x="13" y="702" fill-rule="evenodd" clip-rule="evenodd" width="6" height="32"/>
<rect y="715" fill-rule="evenodd" clip-rule="evenodd" width="32" height="6"/>
<rect x="13" y="741" fill-rule="evenodd" clip-rule="evenodd" width="6" height="32"/>
<rect y="754" fill-rule="evenodd" clip-rule="evenodd" width="32" height="6"/>
<rect x="13" y="780" fill-rule="evenodd" clip-rule="evenodd" width="6" height="32"/>
<rect y="793" fill-rule="evenodd" clip-rule="evenodd" width="32" height="6"/>
</svg>
