<?xml version="1.0" encoding="utf-8"?>
<!-- Generator: Adobe Illustrator 16.0.0, SVG Export Plug-In . SVG Version: 6.00 Build 0)  -->
<!DOCTYPE svg PUBLIC "-//W3C//DTD SVG 1.1//EN" "http://www.w3.org/Graphics/SVG/1.1/DTD/svg11.dtd">
<svg version="1.1" id="Layer_1" xmlns="http://www.w3.org/2000/svg" xmlns:xlink="http://www.w3.org/1999/xlink" x="0px" y="0px"
	 width="130px" height="130px" viewBox="0 0 130 130" enable-background="new 0 0 130 130" xml:space="preserve">
<g>
	<path fill="#ED1C24" d="M77.75,4.594c-6.127-6.126-19.287-6.125-25.411,0C41.66,15.273,59.3,65,59.3,65h10.801
		C70.102,65,88.43,15.273,77.75,4.594z"/>
	<path fill="#ED1C24" d="M4.593,52.249c-6.126,6.127-6.125,19.288,0,25.413C15.271,88.34,65,70.701,65,70.701V59.898
		C65,59.898,15.272,41.57,4.593,52.249z"/>
	<path fill="#ED1C24" d="M52.247,125.406c6.127,6.126,19.286,6.125,25.412,0C88.337,114.729,70.697,65,70.697,65h-10.8
		C59.897,65,41.568,114.728,52.247,125.406z"/>
	<path fill="#ED1C24" d="M99.396,117.856c8.665,0,17.971-9.308,17.971-17.971c0-15.1-47.635-37.789-47.635-37.789l-7.638,7.636
		C62.094,69.733,84.295,117.856,99.396,117.856z"/>
	<path fill="#ED1C24" d="M125.406,77.751c6.125-6.126,6.125-19.287,0-25.413c-10.678-10.677-60.405,6.963-60.405,6.963L65,70.102
		C65,70.102,114.725,88.432,125.406,77.751z"/>
	<path fill="#ED1C24" d="M117.854,30.604c-0.001-8.665-9.307-17.97-17.97-17.97c-15.101,0-37.79,47.635-37.79,47.635l7.636,7.638
		C69.73,67.906,117.854,45.707,117.854,30.604z"/>
	<path fill="#ED1C24" d="M30.602,117.856c-8.665,0-17.97-9.308-17.97-17.971c0-15.1,47.635-37.789,47.635-37.789l7.638,7.636
		C67.904,69.733,45.704,117.856,30.602,117.856z"/>
	<path fill="#ED1C24" d="M12.145,30.604c0.001-8.665,9.308-17.97,17.97-17.97c15.1,0,37.79,47.635,37.79,47.635l-7.637,7.638
		C60.268,67.906,12.145,45.707,12.145,30.604z"/>
</g>
</svg>
