<?xml version="1.0" encoding="utf-8"?>
<!-- Generator: Adobe Illustrator 16.0.0, SVG Export Plug-In . SVG Version: 6.00 Build 0)  -->
<!DOCTYPE svg PUBLIC "-//W3C//DTD SVG 1.1//EN" "http://www.w3.org/Graphics/SVG/1.1/DTD/svg11.dtd">
<svg version="1.1" id="Layer_1" xmlns="http://www.w3.org/2000/svg" xmlns:xlink="http://www.w3.org/1999/xlink" x="0px" y="0px"
	 width="245px" height="96.62px" viewBox="0 0 245 96.62" enable-background="new 0 0 245 96.62" xml:space="preserve">
<g>
	<polygon fill="#050705" points="50,43.31 0,43.31 25,0 25,0 	"/>
	<polygon fill="#050705" points="115,43.31 65,43.31 89.999,0 89.999,0 	"/>
	<polygon fill="#050705" points="180,43.31 130,43.31 154.999,0 154.999,0 	"/>
	<polygon fill="#050705" points="245,43.31 195,43.31 219.999,0 219.999,0 	"/>
</g>
<g>
	<polygon fill="#FBAE25" points="50,96.62 0,96.62 25,53.31 25,53.31 	"/>
	<polygon fill="#FBAE25" points="115,96.62 65,96.62 89.999,53.31 89.999,53.31 	"/>
	<polygon fill="#FBAE25" points="180,96.62 130,96.62 154.999,53.31 154.999,53.31 	"/>
	<polygon fill="#FBAE25" points="245,96.62 195,96.62 219.999,53.31 219.999,53.31 	"/>
</g>
</svg>
