<?xml version="1.0" encoding="utf-8"?>
<!-- Generator: Adobe Illustrator 16.0.0, SVG Export Plug-In . SVG Version: 6.00 Build 0)  -->
<!DOCTYPE svg PUBLIC "-//W3C//DTD SVG 1.1//EN" "http://www.w3.org/Graphics/SVG/1.1/DTD/svg11.dtd">
<svg version="1.1" id="Capa_1" xmlns="http://www.w3.org/2000/svg" xmlns:xlink="http://www.w3.org/1999/xlink" x="0px" y="0px"
	 width="27.054px" height="26.352px" viewBox="172.946 173.648 27.054 26.352"
	 enable-background="new 172.946 173.648 27.054 26.352" xml:space="preserve">
<title>up</title>
<path fill="#FF9E01" d="M199.824,186.887c0,2.892-0.731,5.989-2.552,7.391c-1.006,0.774-1.451,1.983-2.736,2.723
	c-0.904,0.521-1.434,1.314-2.391,1.758c-1.723,0.797-3.642,1.242-5.665,1.242c-1.995,0-3.626-0.838-5.348-1.299
	c-2.034-0.545-1.333-2.234-3.561-2.96c-1.969-0.642-3.182-3.577-3.786-5.616c-0.361-1.219-0.994-2.878-0.806-3.625
	s1.23-1.91,0.935-3.563c-0.166-0.928,1.391-3.614,1.94-4.344c1.296-1.717,3.495-2.627,4.697-3.751s3.533-1.394,5.615-1.062
	c2.067,0.33,4.139-0.131,5.906,0.719c2.154,1.036,4.121,2.639,4.906,4.719c0.383,1.014,1.395,1.808,2.164,2.595
	C200.52,183.22,199.824,185.238,199.824,186.887z"/>
<path d="M182.197,186.021l6.947-6.948c0.443-0.443,1.162-0.443,1.606,0c0.443,0.443,0.443,1.163,0,1.606l-6.15,6.149l6.15,6.141
	c0.435,0.446,0.435,1.158,0,1.605c-0.44,0.443-1.157,0.446-1.6,0.006c-0.003-0.001-0.004-0.004-0.007-0.006l-6.947-6.948
	c-0.444-0.439-0.446-1.155-0.006-1.6C182.192,186.025,182.195,186.022,182.197,186.021L182.197,186.021z"/>
</svg>
