<?xml version="1.0" encoding="utf-8"?>
<!-- Generator: Adobe Illustrator 16.0.0, SVG Export Plug-In . SVG Version: 6.00 Build 0)  -->
<!DOCTYPE svg PUBLIC "-//W3C//DTD SVG 1.1//EN" "http://www.w3.org/Graphics/SVG/1.1/DTD/svg11.dtd">
<svg version="1.1" id="Layer_1" xmlns="http://www.w3.org/2000/svg" xmlns:xlink="http://www.w3.org/1999/xlink" x="0px" y="0px"
	 width="53.9px" height="81.9px" viewBox="0 0 53.9 81.9" enable-background="new 0 0 53.9 81.9" xml:space="preserve">
<g>
	<g>
		<g>
			<path fill="none" stroke="#FEF8EF" stroke-miterlimit="10" d="M22.979,67.556"/>
		</g>
	</g>
	<path fill="#FFFFFF" d="M45.629,14.723C42.602,8.407,35.752,3.896,28.896,3.16c-4.244-0.455-8.47,0.28-12.678,0.851
		c-1.781,0.242-3.188,0.648-4.684,1.666c-0.63,0.444-1.22,0.934-1.771,1.471C9.554,7.314,9.405,7.443,9.288,7.551
		c-2.734,0.713-4.73,3.659-3.968,6.271c-2.952,2.016-2.596,6.531,0.385,8.384c3.284,2.042,7.781,2.876,10.663,0.053
		c1.481,0.417,3.148,0.119,4.563-1.334c2.298-2.36,6.127-1.753,6.983,1.75c0.402,1.649,1.278,3.301,2.453,4.531
		c0.149,0.206,0.272,0.363,0.384,0.498c-0.162,0.501-0.357,0.989-0.626,1.449c-1.819,3.69-5.555,5.13-8.75,7.26
		c-0.156-0.013-0.314-0.023-0.479-0.023c-4.087,0-5.579,4.015-4.486,6.957c-0.213,1.658-0.052,3.354-0.3,5.193
		c-0.387,2.866-0.652,5.647,1.869,7.67c5.903,4.736,12.046-1.243,14.739-6.422c3.191-6.133,10.626-8.84,13.661-15.375
		C49.373,27.967,48.631,20.983,45.629,14.723z"/>
	<path fill="#FFFFFF" d="M32.099,64.706c-0.712-2.631-2.865-4.35-5.374-5.138c-1.053-0.331-2.145-0.234-3.12,0.16
		c-0.438-0.126-0.899-0.189-1.376-0.172c-2.451,0.093-4.25,1.082-5.686,3.034c-1.151,1.563-1.121,3.551-0.854,5.362
		c0.479,3.245,3.339,5.968,6.393,6.836c1.685,0.479,3.501,0.231,5.19-0.054c2.334-0.393,3.82-2.391,4.617-4.434
		C32.568,68.561,32.584,66.5,32.099,64.706z"/>
	<g>
		<path fill="#F9DCA2" d="M22.35,80.75c-1.699-0.767-3.018-1.884-3.949-3.35c-2-0.734-3.568-1.967-4.701-3.7
			C12.565,71.967,12,69.9,12,67.5c0-3.399,1.133-6.232,3.4-8.5C14,58.267,13.3,56.934,13.3,55l-0.2-14.1
			c0-1.933,0.533-3.55,1.6-4.85c1.066-1.3,2.566-2.183,4.5-2.65c3.066-0.666,5.283-1.633,6.65-2.9c1.365-1.266,2.051-2.933,2.051-5
			c0-0.733-0.035-1.266-0.101-1.6c-0.935,0.134-1.75,0.517-2.45,1.15c-0.699,0.634-1.316,1.617-1.85,2.95
			c-0.935,2.267-2.268,3.4-4,3.4c-0.535,0-1.1-0.1-1.7-0.3l-8.7-2.8c-1.934-0.6-3.268-1.733-4-3.4l-0.5-0.1
			c-1.467-0.465-2.6-1.233-3.4-2.3C0.4,21.434,0,20.234,0,18.9c0-0.733,0.167-1.6,0.5-2.6c1.933-5.065,5.05-9.05,9.35-11.95
			C14.15,1.45,19.1,0,24.699,0c3.533,0,6.816,0.6,9.851,1.8C37.582,3,40.199,4.7,42.4,6.9c3.6,2.134,6.414,5.117,8.449,8.95
			C52.883,19.684,53.9,24.067,53.9,29c0,4.2-0.801,7.967-2.4,11.3c-1.6,3.334-3.9,6.1-6.9,8.3c-1.268,0.935-2.484,1.634-3.65,2.1
			c-1.166,0.468-1.75,0.601-1.75,0.4v-0.5c-0.066,5.067-1.5,8.6-4.299,10.6c1.6,1.067,2.832,2.45,3.699,4.15
			C39.465,67.05,39.9,68.934,39.9,71c0,3.333-1.068,5.983-3.201,7.95c-2.134,1.966-4.967,2.95-8.5,2.95
			C26,81.9,24.05,81.515,22.35,80.75z M22.3,55.1c3.065,0.067,5.133-0.5,6.2-1.7c1.065-1.2,1.633-3.3,1.699-6.3v-2.3
			c4.4-1.2,7.951-3.416,10.65-6.65C43.549,34.917,44.9,30.7,44.9,25.5c0-4.333-0.867-8.083-2.602-11.25
			C40.564,11.084,38.166,8.667,35.1,7c-3.066-1.666-6.534-2.5-10.4-2.5c-4.934,0-9.117,1.234-12.549,3.7
			c-3.436,2.467-5.918,5.7-7.451,9.7C4.565,18.3,4.5,18.6,4.5,18.8c0,0.8,0.5,1.367,1.5,1.7l8.6,2.8c1.865-4.933,4.9-7.4,9.1-7.4
			c2.733,0,4.866,0.85,6.4,2.55c1.533,1.7,2.301,4.05,2.301,7.05c0,6.4-4.068,10.5-12.201,12.3c-0.934,0.2-1.6,0.55-2,1.05
			c-0.399,0.5-0.6,1.184-0.6,2.05L17.8,55L22.3,55.1z M29.05,72.25c1.233-1.1,1.851-2.683,1.851-4.75c0-2.065-0.668-3.8-2-5.199
			c-1.335-1.4-3.068-2.101-5.201-2.101c-2.134,0-3.867,0.7-5.199,2.101c-1.334,1.399-2,3.134-2,5.199c0,2.067,0.615,3.65,1.85,4.75
			c1.232,1.101,3.016,1.65,5.35,1.65S27.815,73.35,29.05,72.25z"/>
	</g>
</g>
</svg>
